<mxfile host="app.diagrams.net" modified="2023-12-19T10:24:22.599Z" agent="Mozilla/5.0 (Windows NT 10.0; Win64; x64) AppleWebKit/537.36 (KHTML, like Gecko) Chrome/120.0.0.0 Safari/537.36" etag="-PHEo4ZqvyvKFrHDcs8W" version="22.1.11" type="github">
  <diagram name="Страница — 1" id="zl5DrUXJkgEIziQJzjRc">
    <mxGraphModel dx="1050" dy="565" grid="1" gridSize="10" guides="1" tooltips="1" connect="1" arrows="1" fold="1" page="1" pageScale="1" pageWidth="827" pageHeight="1169" math="0" shadow="0">
      <root>
        <mxCell id="0" />
        <mxCell id="1" parent="0" />
        <mxCell id="SdyZr9FjjGB7W3rOqy6k-12" value="" style="swimlane;startSize=0;" vertex="1" parent="1">
          <mxGeometry x="180" y="90" width="590" height="310" as="geometry" />
        </mxCell>
        <mxCell id="SdyZr9FjjGB7W3rOqy6k-14" value="" style="image;html=1;image=img/lib/clip_art/computers/Database_128x128.png" vertex="1" parent="SdyZr9FjjGB7W3rOqy6k-12">
          <mxGeometry x="480" y="20" width="80" height="80" as="geometry" />
        </mxCell>
        <mxCell id="SdyZr9FjjGB7W3rOqy6k-15" value="" style="image;html=1;image=img/lib/clip_art/computers/Database_128x128.png" vertex="1" parent="SdyZr9FjjGB7W3rOqy6k-12">
          <mxGeometry x="490" y="190" width="80" height="80" as="geometry" />
        </mxCell>
        <mxCell id="SdyZr9FjjGB7W3rOqy6k-1" value="" style="outlineConnect=0;dashed=0;verticalLabelPosition=bottom;verticalAlign=top;align=center;html=1;shape=mxgraph.aws3.api_gateway;fillColor=#D9A741;gradientColor=none;" vertex="1" parent="SdyZr9FjjGB7W3rOqy6k-12">
          <mxGeometry x="40" y="100" width="76.5" height="93" as="geometry" />
        </mxCell>
        <mxCell id="SdyZr9FjjGB7W3rOqy6k-5" value="" style="shape=ext;double=1;rounded=1;whiteSpace=wrap;html=1;arcSize=0;" vertex="1" parent="SdyZr9FjjGB7W3rOqy6k-12">
          <mxGeometry x="210" y="32.5" width="120" height="80" as="geometry" />
        </mxCell>
        <mxCell id="SdyZr9FjjGB7W3rOqy6k-6" value="" style="shape=ext;double=1;rounded=1;whiteSpace=wrap;html=1;" vertex="1" parent="SdyZr9FjjGB7W3rOqy6k-12">
          <mxGeometry x="210" y="210" width="120" height="80" as="geometry" />
        </mxCell>
        <mxCell id="SdyZr9FjjGB7W3rOqy6k-23" value="Main Service" style="text;html=1;strokeColor=none;fillColor=none;align=center;verticalAlign=middle;whiteSpace=wrap;rounded=0;" vertex="1" parent="SdyZr9FjjGB7W3rOqy6k-12">
          <mxGeometry x="235" y="222.5" width="70" height="55" as="geometry" />
        </mxCell>
        <mxCell id="SdyZr9FjjGB7W3rOqy6k-24" value="Secondary Service" style="text;html=1;strokeColor=none;fillColor=none;align=center;verticalAlign=middle;whiteSpace=wrap;rounded=0;" vertex="1" parent="SdyZr9FjjGB7W3rOqy6k-12">
          <mxGeometry x="234" y="45" width="70" height="55" as="geometry" />
        </mxCell>
        <mxCell id="SdyZr9FjjGB7W3rOqy6k-25" value="H2 DB" style="text;html=1;strokeColor=none;fillColor=none;align=center;verticalAlign=middle;whiteSpace=wrap;rounded=0;" vertex="1" parent="SdyZr9FjjGB7W3rOqy6k-12">
          <mxGeometry x="500" y="100" width="60" height="30" as="geometry" />
        </mxCell>
        <mxCell id="SdyZr9FjjGB7W3rOqy6k-26" value="Postgress DB" style="text;html=1;strokeColor=none;fillColor=none;align=center;verticalAlign=middle;whiteSpace=wrap;rounded=0;" vertex="1" parent="SdyZr9FjjGB7W3rOqy6k-12">
          <mxGeometry x="500" y="277.5" width="60" height="30" as="geometry" />
        </mxCell>
        <mxCell id="SdyZr9FjjGB7W3rOqy6k-27" value="Gateway service" style="text;html=1;strokeColor=none;fillColor=none;align=center;verticalAlign=middle;whiteSpace=wrap;rounded=0;" vertex="1" parent="SdyZr9FjjGB7W3rOqy6k-12">
          <mxGeometry x="48.25" y="70" width="60" height="30" as="geometry" />
        </mxCell>
        <mxCell id="SdyZr9FjjGB7W3rOqy6k-40" value="" style="endArrow=classic;html=1;rounded=0;" edge="1" parent="SdyZr9FjjGB7W3rOqy6k-12" source="SdyZr9FjjGB7W3rOqy6k-1">
          <mxGeometry relative="1" as="geometry">
            <mxPoint x="120" y="180" as="sourcePoint" />
            <mxPoint x="210" y="250" as="targetPoint" />
          </mxGeometry>
        </mxCell>
        <mxCell id="SdyZr9FjjGB7W3rOqy6k-41" value="routing" style="edgeLabel;resizable=0;html=1;align=center;verticalAlign=middle;" connectable="0" vertex="1" parent="SdyZr9FjjGB7W3rOqy6k-40">
          <mxGeometry relative="1" as="geometry" />
        </mxCell>
        <mxCell id="SdyZr9FjjGB7W3rOqy6k-43" value="" style="endArrow=classic;html=1;rounded=0;entryX=-0.03;entryY=0.861;entryDx=0;entryDy=0;entryPerimeter=0;" edge="1" parent="SdyZr9FjjGB7W3rOqy6k-12" target="SdyZr9FjjGB7W3rOqy6k-5">
          <mxGeometry relative="1" as="geometry">
            <mxPoint x="108.25" y="130" as="sourcePoint" />
            <mxPoint x="208.25" y="130" as="targetPoint" />
          </mxGeometry>
        </mxCell>
        <mxCell id="SdyZr9FjjGB7W3rOqy6k-44" value="routing" style="edgeLabel;resizable=0;html=1;align=center;verticalAlign=middle;" connectable="0" vertex="1" parent="SdyZr9FjjGB7W3rOqy6k-43">
          <mxGeometry relative="1" as="geometry" />
        </mxCell>
        <mxCell id="SdyZr9FjjGB7W3rOqy6k-46" value="" style="endArrow=classic;startArrow=classic;html=1;rounded=0;" edge="1" parent="SdyZr9FjjGB7W3rOqy6k-12">
          <mxGeometry width="50" height="50" relative="1" as="geometry">
            <mxPoint x="330.00242424242424" y="70" as="sourcePoint" />
            <mxPoint x="470" y="70" as="targetPoint" />
          </mxGeometry>
        </mxCell>
        <mxCell id="SdyZr9FjjGB7W3rOqy6k-50" value="" style="endArrow=classic;startArrow=classic;html=1;rounded=0;" edge="1" parent="SdyZr9FjjGB7W3rOqy6k-12">
          <mxGeometry width="50" height="50" relative="1" as="geometry">
            <mxPoint x="340.00242424242424" y="249.5" as="sourcePoint" />
            <mxPoint x="480" y="249.5" as="targetPoint" />
          </mxGeometry>
        </mxCell>
        <mxCell id="SdyZr9FjjGB7W3rOqy6k-52" value="" style="endArrow=classic;html=1;rounded=0;fillColor=#d5e8d4;strokeColor=#82b366;jumpSize=12;entryX=1;entryY=0.8;entryDx=0;entryDy=0;entryPerimeter=0;" edge="1" parent="SdyZr9FjjGB7W3rOqy6k-12">
          <mxGeometry x="-0.5055" y="-26" relative="1" as="geometry">
            <mxPoint x="213.75" y="222.27" as="sourcePoint" />
            <mxPoint x="122" y="159.99999999999997" as="targetPoint" />
            <mxPoint x="-1" as="offset" />
          </mxGeometry>
        </mxCell>
        <mxCell id="SdyZr9FjjGB7W3rOqy6k-58" value="Feign Client" style="edgeLabel;html=1;align=center;verticalAlign=middle;resizable=0;points=[];" vertex="1" connectable="0" parent="SdyZr9FjjGB7W3rOqy6k-52">
          <mxGeometry x="0.1624" y="1" relative="1" as="geometry">
            <mxPoint as="offset" />
          </mxGeometry>
        </mxCell>
        <mxCell id="SdyZr9FjjGB7W3rOqy6k-59" value="" style="endArrow=classic;html=1;rounded=0;fillColor=#d5e8d4;strokeColor=#82b366;jumpSize=12;entryX=0;entryY=0.5;entryDx=0;entryDy=0;" edge="1" parent="SdyZr9FjjGB7W3rOqy6k-12" target="SdyZr9FjjGB7W3rOqy6k-5">
          <mxGeometry x="-0.5055" y="-26" relative="1" as="geometry">
            <mxPoint x="80" y="110" as="sourcePoint" />
            <mxPoint x="16.5" y="53.870000000000005" as="targetPoint" />
            <mxPoint x="-1" as="offset" />
          </mxGeometry>
        </mxCell>
        <mxCell id="SdyZr9FjjGB7W3rOqy6k-60" value="Feign Client" style="edgeLabel;html=1;align=center;verticalAlign=middle;resizable=0;points=[];" vertex="1" connectable="0" parent="SdyZr9FjjGB7W3rOqy6k-59">
          <mxGeometry x="0.1624" y="1" relative="1" as="geometry">
            <mxPoint as="offset" />
          </mxGeometry>
        </mxCell>
        <mxCell id="SdyZr9FjjGB7W3rOqy6k-85" value="" style="swimlane;startSize=0;fillColor=#f8cecc;strokeColor=#b85450;dashed=1;strokeWidth=3;" vertex="1" parent="SdyZr9FjjGB7W3rOqy6k-12">
          <mxGeometry x="190" y="5" width="240" height="300" as="geometry" />
        </mxCell>
        <mxCell id="SdyZr9FjjGB7W3rOqy6k-109" value="CircuitBreaker" style="text;html=1;strokeColor=none;fillColor=none;align=center;verticalAlign=middle;whiteSpace=wrap;rounded=0;" vertex="1" parent="SdyZr9FjjGB7W3rOqy6k-85">
          <mxGeometry x="220" y="126.5" width="60" height="30" as="geometry" />
        </mxCell>
        <mxCell id="SdyZr9FjjGB7W3rOqy6k-20" value="" style="image;aspect=fixed;perimeter=ellipsePerimeter;html=1;align=center;shadow=0;dashed=0;spacingTop=3;image=img/lib/active_directory/user.svg;" vertex="1" parent="1">
          <mxGeometry x="40" y="211.5" width="18.5" height="50" as="geometry" />
        </mxCell>
        <mxCell id="SdyZr9FjjGB7W3rOqy6k-22" value="User" style="text;html=1;strokeColor=none;fillColor=none;align=center;verticalAlign=middle;whiteSpace=wrap;rounded=0;" vertex="1" parent="1">
          <mxGeometry x="10" y="261.5" width="60" height="30" as="geometry" />
        </mxCell>
        <mxCell id="SdyZr9FjjGB7W3rOqy6k-61" value="Eureka Client" style="text;html=1;strokeColor=#82b366;fillColor=#d5e8d4;align=center;verticalAlign=middle;whiteSpace=wrap;rounded=0;" vertex="1" parent="1">
          <mxGeometry x="190" y="70" width="120" height="20" as="geometry" />
        </mxCell>
        <mxCell id="SdyZr9FjjGB7W3rOqy6k-112" value="" style="endArrow=classic;startArrow=classic;html=1;rounded=0;" edge="1" parent="1">
          <mxGeometry width="50" height="50" relative="1" as="geometry">
            <mxPoint x="70" y="230" as="sourcePoint" />
            <mxPoint x="210" y="230" as="targetPoint" />
            <Array as="points">
              <mxPoint x="130" y="230" />
            </Array>
          </mxGeometry>
        </mxCell>
      </root>
    </mxGraphModel>
  </diagram>
</mxfile>
